<svg preserveAspectRatio="xMidYMid meet" data-bbox="0 0 200.705 55.707" xmlns="http://www.w3.org/2000/svg" viewBox="0 0 200.705 55.707" height="58" width="201" data-type="color" role="presentation" aria-hidden="true">
    <g>
        <path fill="#ffffff" d="M112.314 16.255h83.787L182.955 38.4H100.26l12.054-22.145Zm-59.722 3.413-3.259 5.808h11.068c.28 0 .536-.074.763-.216.228-.144.494-.397.792-.769h.457l-2.511 4.475H42.327l.286-.506c.391-.107.693-.24.914-.403.22-.163.424-.406.605-.729l10.036-17.89c.18-.322.251-.565.215-.729-.036-.164-.187-.302-.464-.402l.284-.508h16.575l-2.51 4.475h-.456c.114-.365.135-.62.067-.768-.063-.144-.238-.216-.514-.216H57.293l-2.813 5.013h8.806c.276 0 .532-.073.759-.215.227-.143.493-.398.792-.768h.455l-2.99 5.331h-.457c.111-.359.13-.613.066-.76-.065-.15-.237-.223-.513-.223h-8.806Zm-32.481 9.143.407-19.99L10.78 26.58c-.238.435-.312.77-.25.993.065.223.681.405 1.078.548l-.366.691H4.566l.366-.69c.55-.144.969-.325 1.269-.549.3-.222.571-.554.804-.993L19.918 2.21c.405-.765.159-1.031-.81-1.308L19.442 0h6.42l-.527 21.042L44.334 3.075 47.448 0h6.618L53.7.69c-.546.137-.969.324-1.27.547-.3.224-.566.547-.791.972L38.726 26.58c-.232.44-.313.77-.25.993.066.224.294.405.69.548l-.366.691h-7.828l.44-.889c1.531-.376 1.519-.502 1.998-1.343l9.96-17.505-20.493 19.757-2.766-.02Zm95.767-9.882h18.337l-1.425 3.8h-.445c.031-.32-.005-.54-.105-.656-.098-.121-.289-.18-.567-.18h-5.709l-5.108 13.62c-.103.272-.115.48-.045.619.075.138.254.25.545.34l-.162.433h-5.778l.161-.433c.359-.09.623-.202.8-.34.177-.14.32-.347.423-.62l5.108-13.619h-5.723a1.25 1.25 0 0 0-.687.18c-.187.117-.39.336-.598.656h-.445l1.423-3.8Zm-44.873 6.547h5.219c1.665 0 3.057-.253 4.178-.762 2.405-1.084 4.489-3.195 6.253-6.342 1.274-2.268 1.768-4.014 1.48-5.22-.165-.672-.546-1.153-1.15-1.434-.604-.285-1.536-.428-2.8-.428h-5.22l-7.96 14.186Zm-5.203 1.852L75.84 9.438c.18-.322.25-.565.214-.729-.035-.164-.186-.302-.464-.402l.286-.508H86.48c2.324 0 3.941.297 4.857.883 1.306.857 1.828 2.275 1.577 4.247-.193 1.556-.874 3.37-2.037 5.443-2.047 3.649-4.617 6.432-7.706 8.347-1.297.805-2.61 1.38-3.942 1.729-1.324.345-2.867.518-4.626.518H63.998l.285-.506c.393-.107.695-.24.915-.403.22-.163.424-.406.604-.729Zm23.91 0L99.76 9.422c.174-.311.24-.549.204-.713-.035-.164-.186-.302-.462-.402l.285-.508h5.932l-.285.508c-.387.095-.686.221-.912.397a2.292 2.292 0 0 0-.599.718L93.877 27.328c-.182.323-.251.566-.213.735.035.174.192.3.462.397l-.285.506h-5.932l.285-.506c.392-.107.694-.24.914-.403.22-.163.424-.406.604-.729Zm46.214 3.508-1.57 3.761h7.998c.211 0 .391-.048.54-.14.149-.091.311-.257.48-.496h.342l-1.209 2.897h-12.885l.137-.328c.279-.07.487-.155.627-.26.141-.106.256-.265.344-.473l4.834-11.585c.088-.208.103-.367.052-.473-.053-.106-.187-.195-.409-.26l.136-.33h12.478l-1.209 2.899h-.343c.031-.237.009-.402-.064-.497-.071-.093-.213-.14-.42-.14h-7.595l-1.355 3.247h6.589c.208 0 .388-.049.537-.14.15-.093.31-.257.479-.498h.343l-1.441 3.454h-.343c.027-.233.005-.397-.066-.494-.071-.096-.211-.144-.418-.144h-6.589Zm24.615 1.256.815 3.182-.347.18c-.124-.174-.248-.26-.374-.26-.986 0-2.575 1.91-6.782 1.91-2.252 0-3.888-.513-4.906-1.538-.6-.595-.962-1.335-1.083-2.218-.14-1.014.045-2.127.552-3.351.694-1.661 1.803-3.103 3.324-4.33 1.89-1.52 4.047-2.413 6.471-2.68 1.179-.129 2.15-.15 3.295.2 1.526.471 2.788 1.316 3.769.89l.716.585-3.824 3.347-.685-.358c.101-.182.927-.925.051-1.523-2.592-1.772-5.159-.672-6.729.276-1.529.918-2.601 2.117-3.22 3.6-.62 1.484-.549 2.682.214 3.6.644.785 1.782 1.179 3.417 1.179 1.999 0 3.066-.463 3.931-1.065.828-.576.658-.885.764-1.28l.631-.346Zm17.622-1.215h-8.225l-2.057 4.93c-.084.202-.098.357-.045.466.053.113.19.196.407.257l-.137.328h-4.456l.139-.328c.278-.07.485-.155.625-.26.141-.106.255-.261.339-.462l4.845-11.607c.084-.2.097-.356.046-.462-.053-.106-.186-.195-.409-.26l.137-.33h4.455l-.137.33c-.275.062-.481.143-.625.256a1.12 1.12 0 0 0-.34.466l-1.844 4.416h8.225l1.843-4.416c.084-.2.099-.356.049-.466-.05-.113-.187-.194-.412-.256l.138-.33h4.454l-.136.33c-.277.065-.486.154-.626.26a1.087 1.087 0 0 0-.34.462l-4.843 11.607c-.086.2-.099.356-.048.462.053.105.188.19.409.26l-.137.328h-4.454l.136-.328c.269-.061.475-.144.622-.257.145-.11.259-.264.344-.465l2.058-4.93ZM109.106 7.131h-.077L94.695 33.343H2.81L0 37.636h96.757l13.1-23.952h87.502l3.346-6.553h-91.599Z" clip-rule="evenodd" fill-rule="evenodd" data-color="1"></path>
        <path fill="#ffffff" d="M1.496 53.395c-.09 0-.136-.04-.136-.119V42.09c0-.09.045-.136.136-.136h5.355c.068 0 .108.011.119.034.011.011.017.045.017.102v.714c0 .068-.011.113-.034.136-.011.011-.045.017-.102.017H2.72c-.057 0-.09.011-.102.034-.011.011-.017.04-.017.085v3.927c0 .045.011.08.034.102a.115.115 0 0 0 .085.034h3.366c.068 0 .108.011.119.034.023.011.034.057.034.136v.646c0 .068-.011.113-.034.136-.011.023-.051.034-.119.034H2.72c-.057 0-.09.011-.102.034-.011.011-.017.04-.017.085v4.012c0 .045.006.085.017.119.011.023.045.034.102.034h4.114c.08 0 .125.011.136.034.011.011.017.051.017.119v.663c0 .08-.011.13-.034.153-.011.011-.051.017-.119.017H1.496Zm7.366 0c-.09 0-.136-.045-.136-.136v-7.225a.23.23 0 0 1 .068-.17c.045-.057.147-.113.306-.17a7.09 7.09 0 0 1 .646-.153c.295-.068.606-.13.935-.187a5.73 5.73 0 0 1 .935-.085c.873 0 1.541.17 2.006.51.476.34.805.805.986 1.394.181.578.272 1.218.272 1.921 0 .521-.011 1.048-.034 1.581a43.737 43.737 0 0 1-.085 1.445c-.023.442-.045.793-.068 1.054-.011.102-.034.164-.068.187-.023.023-.085.034-.187.034h-.731c-.09 0-.153-.011-.187-.034-.034-.034-.045-.09-.034-.17 0-.068.006-.25.017-.544a50.604 50.604 0 0 0 .119-2.346c.023-.453.034-.867.034-1.241 0-.612-.074-1.122-.221-1.53-.147-.408-.374-.714-.68-.918-.295-.204-.68-.306-1.156-.306-.25 0-.493.023-.731.068a4.453 4.453 0 0 0-.646.17.386.386 0 0 0-.204.119c-.057.057-.085.159-.085.306v6.29c0 .09-.04.136-.12.136h-.951Zm7.673-4.114c.01-.76.113-1.44.305-2.04a2.764 2.764 0 0 1 1.072-1.445c.51-.351 1.218-.527 2.125-.527.442 0 .878.034 1.309.102.43.068.81.17 1.139.306.17.057.283.142.34.255.056.113.096.289.119.527.102.816.158 1.79.17 2.924a25.204 25.204 0 0 1-.188 3.519c-.113.975-.458 1.683-1.036 2.125-.567.453-1.355.68-2.364.68-.396 0-.827-.057-1.291-.17a3.543 3.543 0 0 1-1.258-.578.523.523 0 0 1-.137-.153c-.01-.034 0-.074.035-.119a7.622 7.622 0 0 1 .272-.493c.045-.068.085-.108.119-.119.045 0 .09.023.136.068.18.102.385.198.611.289.238.102.488.181.748.238.261.068.516.102.765.102.318 0 .624-.057.919-.17a1.88 1.88 0 0 0 .782-.544c.226-.25.373-.59.442-1.02v-.051a.151.151 0 0 0 .017-.068c.01-.08-.012-.125-.069-.136a.54.54 0 0 0-.22.017 9.642 9.642 0 0 1-.748.17 5.26 5.26 0 0 1-.834.068c-.702 0-1.303-.147-1.802-.442a2.979 2.979 0 0 1-1.122-1.292c-.249-.567-.368-1.241-.356-2.023Zm1.24-.136c0 .567.069 1.071.205 1.513.136.442.362.788.68 1.037.328.25.77.374 1.325.374.25 0 .5-.017.748-.051.25-.034.47-.09.663-.17.273-.102.414-.25.425-.442.034-.317.051-.68.051-1.088 0-.42-.005-.844-.017-1.275 0-.442-.01-.85-.034-1.224a9.165 9.165 0 0 0-.068-.935c0-.08-.017-.17-.05-.272-.034-.102-.114-.181-.238-.238-.137-.068-.34-.119-.613-.153a4.865 4.865 0 0 0-.832-.068c-.556 0-.998.125-1.326.374-.318.25-.55.6-.697 1.054-.137.453-.21.975-.221 1.564Zm8.762-5.984c0 .204-.046.363-.136.476-.08.102-.261.153-.544.153-.273 0-.46-.051-.561-.153-.091-.113-.136-.272-.136-.476 0-.193.045-.34.136-.442.102-.113.288-.17.56-.17.295 0 .482.057.561.17.08.102.12.25.12.442Zm-.069 10.115c0 .08-.045.119-.136.119h-.951c-.08 0-.12-.04-.12-.119V45.49c0-.08.04-.119.12-.119h.951c.091 0 .136.04.136.119v7.786Zm2.349.119c-.09 0-.136-.045-.136-.136v-7.225a.23.23 0 0 1 .068-.17c.045-.057.147-.113.306-.17a7.09 7.09 0 0 1 .646-.153c.295-.068.606-.13.935-.187a5.73 5.73 0 0 1 .935-.085c.873 0 1.541.17 2.006.51.476.34.805.805.986 1.394.181.578.272 1.218.272 1.921 0 .521-.011 1.048-.034 1.581a43.737 43.737 0 0 1-.085 1.445c-.023.442-.045.793-.068 1.054-.011.102-.034.164-.068.187-.023.023-.085.034-.187.034h-.731c-.09 0-.153-.011-.187-.034-.034-.034-.045-.09-.034-.17 0-.068.006-.25.017-.544a50.604 50.604 0 0 0 .119-2.346c.023-.453.034-.867.034-1.241 0-.612-.074-1.122-.221-1.53-.147-.408-.374-.714-.68-.918-.295-.204-.68-.306-1.156-.306-.25 0-.493.023-.731.068a4.453 4.453 0 0 0-.646.17.386.386 0 0 0-.204.119c-.057.057-.085.159-.085.306v6.29c0 .09-.04.136-.119.136h-.952Zm7.673-4.029c0-.533.05-1.043.153-1.53.113-.487.294-.924.544-1.309a2.5 2.5 0 0 1 1.02-.918c.442-.227 1.003-.34 1.683-.34.69 0 1.246.102 1.666.306.419.204.73.476.935.816a3 3 0 0 1 .425 1.122c.079.408.119.816.119 1.224 0 .42-.046.68-.136.782-.08.102-.204.153-.374.153h-4.641a.275.275 0 0 0-.12.034c-.033.023-.05.085-.05.187 0 .521.085.986.255 1.394.17.397.43.708.782.935.362.227.816.34 1.36.34.374 0 .765-.045 1.173-.136a5.036 5.036 0 0 0 1.02-.357.724.724 0 0 1 .22-.102c.057-.011.108.034.154.136l.22.425c.035.068.04.119.018.153a.389.389 0 0 1-.12.102c-.362.238-.804.42-1.325.544-.51.113-1.032.17-1.564.17-.703 0-1.275-.102-1.717-.306a2.563 2.563 0 0 1-1.037-.884 3.825 3.825 0 0 1-.527-1.326 9.03 9.03 0 0 1-.136-1.615Zm5.304-.833c0-.408-.051-.782-.153-1.122a1.598 1.598 0 0 0-.578-.85c-.272-.215-.675-.323-1.207-.323-.386 0-.714.074-.986.221-.272.147-.488.34-.646.578a2.495 2.495 0 0 0-.357.765c-.08.272-.13.533-.153.782 0 .113.005.193.017.238.022.034.079.051.17.051h3.604c.113 0 .192-.017.238-.051.045-.034.062-.13.05-.289Zm2.515.833c0-.533.05-1.043.153-1.53.113-.487.295-.924.544-1.309a2.5 2.5 0 0 1 1.02-.918c.442-.227 1.003-.34 1.683-.34.691 0 1.247.102 1.666.306.42.204.73.476.935.816a3 3 0 0 1 .425 1.122c.08.408.119.816.119 1.224 0 .42-.045.68-.136.782-.08.102-.204.153-.374.153h-4.641a.275.275 0 0 0-.12.034c-.033.023-.05.085-.05.187 0 .521.085.986.255 1.394.17.397.43.708.782.935.363.227.816.34 1.36.34.374 0 .765-.045 1.173-.136a5.036 5.036 0 0 0 1.02-.357.725.725 0 0 1 .22-.102c.058-.011.109.034.154.136l.22.425c.035.068.04.119.018.153a.387.387 0 0 1-.12.102c-.362.238-.804.42-1.325.544-.51.113-1.031.17-1.564.17-.703 0-1.275-.102-1.717-.306a2.563 2.563 0 0 1-1.037-.884 3.827 3.827 0 0 1-.527-1.326 9.03 9.03 0 0 1-.136-1.615Zm5.304-.833c0-.408-.051-.782-.153-1.122a1.598 1.598 0 0 0-.578-.85c-.272-.215-.674-.323-1.207-.323-.385 0-.714.074-.986.221-.272.147-.487.34-.646.578a2.495 2.495 0 0 0-.357.765 4.14 4.14 0 0 0-.153.782c0 .113.006.193.017.238.023.034.08.051.17.051h3.604c.113 0 .193-.017.238-.051.045-.034.062-.13.05-.289Zm5.422-3.247c.692 0 1.275.09 1.751.272a.657.657 0 0 1 .12.085c.033.023.045.062.033.119l-.17.646c-.011.057-.034.09-.068.102-.022.011-.062.006-.119-.017a2.99 2.99 0 0 0-.663-.136 4.708 4.708 0 0 0-.663-.051c-.181 0-.368.017-.56.051a5.256 5.256 0 0 0-.528.119c-.147.034-.26.068-.34.102a3.787 3.787 0 0 1-.17.119c-.068.045-.102.147-.102.306v6.205c0 .08-.011.13-.034.153-.022.023-.062.034-.119.034h-.918a.183.183 0 0 1-.102-.034c-.022-.023-.034-.062-.034-.119v-6.953c0-.17.023-.283.068-.34a.603.603 0 0 1 .204-.153c.34-.159.737-.283 1.19-.374a6.31 6.31 0 0 1 1.224-.136Zm2.655 4.08c0-.533.05-1.043.153-1.53.113-.487.294-.924.544-1.309a2.5 2.5 0 0 1 1.02-.918c.442-.227 1.003-.34 1.683-.34.691 0 1.246.102 1.666.306.42.204.73.476.935.816a3 3 0 0 1 .425 1.122c.08.408.119.816.119 1.224 0 .42-.046.68-.136.782-.08.102-.204.153-.374.153h-4.641a.275.275 0 0 0-.12.034c-.033.023-.05.085-.05.187 0 .521.085.986.255 1.394.17.397.43.708.782.935.362.227.816.34 1.36.34.374 0 .765-.045 1.173-.136a5.036 5.036 0 0 0 1.02-.357.724.724 0 0 1 .22-.102c.057-.011.108.034.154.136l.22.425c.035.068.04.119.018.153a.389.389 0 0 1-.12.102c-.362.238-.804.42-1.325.544-.51.113-1.032.17-1.564.17-.703 0-1.275-.102-1.717-.306a2.563 2.563 0 0 1-1.037-.884 3.825 3.825 0 0 1-.527-1.326 9.03 9.03 0 0 1-.136-1.615Zm5.304-.833c0-.408-.051-.782-.153-1.122a1.598 1.598 0 0 0-.578-.85c-.272-.215-.675-.323-1.207-.323-.386 0-.714.074-.986.221-.272.147-.488.34-.646.578a2.495 2.495 0 0 0-.357.765c-.08.272-.13.533-.153.782 0 .113.005.193.017.238.022.034.08.051.17.051h3.604c.113 0 .192-.017.238-.051.045-.034.062-.13.05-.289Zm2.6.952c.011-.861.113-1.558.306-2.091.204-.544.47-.963.8-1.258.328-.306.685-.51 1.07-.612.397-.113.788-.17 1.173-.17.306 0 .6.023.884.068.295.034.533.074.714.119.125.034.21.051.255.051.057-.011.085-.068.085-.17 0-.193-.006-.43-.017-.714 0-.295-.011-.6-.034-.918l-.034-.918a55.25 55.25 0 0 0-.034-.765 4.817 4.817 0 0 0-.034-.425c-.011-.09-.006-.147.017-.17a.21.21 0 0 1 .12-.034h.917a.24.24 0 0 1 .102.017c.034.011.051.04.051.085.045.567.08 1.167.102 1.802.034.623.057 1.27.068 1.938.011.657.017 1.32.017 1.989.011.657.006 1.309-.017 1.955a44.512 44.512 0 0 1-.068 1.819 30.12 30.12 0 0 1-.102 1.598.528.528 0 0 1-.085.221c-.045.057-.147.119-.306.187a6.402 6.402 0 0 1-1.122.306c-.453.102-.93.153-1.428.153a5.36 5.36 0 0 1-1.309-.187 2.354 2.354 0 0 1-1.02-.561c-.363-.329-.635-.765-.816-1.309-.17-.555-.255-1.224-.255-2.006Zm1.224.017c0 .748.08 1.332.238 1.751.17.42.402.72.697.901.215.181.493.3.833.357.34.057.686.062 1.037.017.363-.045.669-.125.918-.238a1.78 1.78 0 0 0 .153-.102.162.162 0 0 0 .068-.136c.011-.283.028-.612.051-.986.023-.385.034-.782.034-1.19l.034-1.173c.011-.385.017-.731.017-1.037 0-.306-.006-.538-.017-.697 0-.102-.023-.176-.068-.221a.453.453 0 0 0-.153-.102 7.042 7.042 0 0 0-.85-.17 5.904 5.904 0 0 0-.816-.068c-.215 0-.453.04-.714.119-.25.068-.487.204-.714.408-.215.204-.39.516-.527.935-.136.408-.21.952-.22 1.632Zm12.28 3.757a62.391 62.391 0 0 1-.102-1.411c-.023-.544-.046-1.122-.068-1.734l-.034-1.87a96.886 96.886 0 0 1-.017-1.768c0-.102-.046-.153-.136-.153h-1.003c-.046 0-.08-.011-.102-.034a.235.235 0 0 1-.017-.102v-.68c0-.045.005-.08.017-.102.022-.023.062-.034.119-.034h.986c.056 0 .09-.006.102-.017.022-.023.034-.068.034-.136-.012-.555.005-1.065.05-1.53a2.86 2.86 0 0 1 .477-1.275 2.31 2.31 0 0 1 1.088-.833c.464-.193 1.031-.289 1.7-.289.328 0 .629.051.9.153.284.09.477.164.579.221.079.045.124.085.136.119.022.023.028.057.017.102l-.17.544c-.012.057-.029.09-.051.102-.023.011-.057.006-.102-.017a2.113 2.113 0 0 0-.544-.204 2.717 2.717 0 0 0-.782-.068c-.51 0-.93.09-1.258.272-.318.17-.527.482-.63.935-.09.283-.147.572-.17.867a11.73 11.73 0 0 0-.033.901c0 .057.011.096.034.119.022.023.056.034.102.034h2.55c.045 0 .073.011.085.034.022.011.034.051.034.119v.663a.183.183 0 0 1-.034.102c-.023.023-.057.034-.102.034h-2.516a.21.21 0 0 0-.12.034c-.022.023-.033.062-.033.119a109.936 109.936 0 0 0 .068 3.706c.022.646.045 1.241.068 1.785.022.533.045.969.068 1.309a.24.24 0 0 1-.017.102c-.012.023-.04.034-.085.034h-.97c-.022 0-.045-.011-.067-.034a.233.233 0 0 1-.051-.119Zm7.876.238c-.918 0-1.632-.176-2.142-.527-.51-.351-.867-.839-1.071-1.462-.193-.623-.289-1.337-.289-2.142 0-.793.108-1.496.323-2.108.227-.623.595-1.11 1.105-1.462.51-.351 1.201-.527 2.074-.527.884 0 1.581.176 2.091.527.51.351.873.839 1.088 1.462.227.612.34 1.315.34 2.108 0 .793-.102 1.502-.306 2.125a2.76 2.76 0 0 1-1.054 1.479c-.499.351-1.218.527-2.159.527Zm0-.969c.85 0 1.44-.272 1.768-.816.34-.555.51-1.332.51-2.329 0-.997-.181-1.762-.544-2.295-.363-.533-.94-.799-1.734-.799-.782 0-1.36.266-1.734.799-.363.533-.544 1.298-.544 2.295 0 1.009.17 1.785.51 2.329.34.544.93.816 1.768.816Zm7.789-7.242c.691 0 1.275.09 1.75.272a.665.665 0 0 1 .12.085c.034.023.045.062.034.119l-.17.646c-.012.057-.034.09-.068.102-.023.011-.063.006-.12-.017a2.99 2.99 0 0 0-.662-.136 4.708 4.708 0 0 0-.663-.051c-.182 0-.369.017-.561.051a5.244 5.244 0 0 0-.527.119 2.11 2.11 0 0 0-.34.102 3.845 3.845 0 0 1-.17.119c-.068.045-.102.147-.102.306v6.205c0 .08-.012.13-.034.153-.023.023-.063.034-.12.034h-.917a.183.183 0 0 1-.102-.034c-.023-.023-.034-.062-.034-.119v-6.953c0-.17.022-.283.068-.34a.601.601 0 0 1 .204-.153 5.24 5.24 0 0 1 1.19-.374 6.35 6.35 0 0 1 1.224-.136Zm13.605.255a5.13 5.13 0 0 1-.374 1.989 3.376 3.376 0 0 1-1.105 1.428c-.487.363-1.093.544-1.819.544h-1.479a.115.115 0 0 0-.102.051.118.118 0 0 0-.034.085v3.638c0 .08-.045.119-.136.119h-.969c-.09 0-.136-.04-.136-.119V42.09c0-.09.046-.136.136-.136h2.533c1.236 0 2.125.295 2.669.884.544.578.816 1.479.816 2.703Zm-4.913 2.856c0 .09.04.136.119.136h1.36c.714 0 1.264-.26 1.649-.782.386-.533.578-1.264.578-2.193 0-.975-.187-1.66-.561-2.057-.374-.408-.946-.612-1.717-.612h-1.292c-.056 0-.096.011-.119.034-.011.011-.017.051-.017.119v5.355Zm6.314.969c0-.533.051-1.043.153-1.53.113-.487.295-.924.544-1.309a2.496 2.496 0 0 1 1.02-.918c.442-.227 1.003-.34 1.683-.34.691 0 1.247.102 1.666.306.419.204.731.476.935.816a3 3 0 0 1 .425 1.122c.079.408.119.816.119 1.224 0 .42-.045.68-.136.782-.079.102-.204.153-.374.153h-4.641a.274.274 0 0 0-.119.034c-.034.023-.051.085-.051.187 0 .521.085.986.255 1.394.17.397.431.708.782.935.363.227.816.34 1.36.34.374 0 .765-.045 1.173-.136a5.036 5.036 0 0 0 1.02-.357.725.725 0 0 1 .221-.102c.057-.011.108.034.153.136l.221.425c.034.068.04.119.017.153a.383.383 0 0 1-.119.102c-.363.238-.805.42-1.326.544-.51.113-1.031.17-1.564.17-.703 0-1.275-.102-1.717-.306a2.56 2.56 0 0 1-1.037-.884 3.833 3.833 0 0 1-.527-1.326 9.003 9.003 0 0 1-.136-1.615Zm5.304-.833c0-.408-.051-.782-.153-1.122a1.6 1.6 0 0 0-.578-.85c-.272-.215-.674-.323-1.207-.323-.385 0-.714.074-.986.221a1.78 1.78 0 0 0-.646.578 2.481 2.481 0 0 0-.357.765c-.079.272-.13.533-.153.782 0 .113.006.193.017.238.023.034.079.051.17.051h3.604c.113 0 .193-.017.238-.051.045-.034.062-.13.051-.289Zm5.422-3.247c.692 0 1.275.09 1.751.272a.625.625 0 0 1 .119.085c.034.023.046.062.034.119l-.17.646c-.011.057-.034.09-.068.102-.022.011-.062.006-.119-.017a2.99 2.99 0 0 0-.663-.136 4.708 4.708 0 0 0-.663-.051c-.181 0-.368.017-.561.051a5.314 5.314 0 0 0-.527.119c-.147.034-.26.068-.34.102a3.62 3.62 0 0 1-.17.119c-.068.045-.102.147-.102.306v6.205c0 .08-.011.13-.034.153-.022.023-.062.034-.119.034h-.918a.183.183 0 0 1-.102-.034c-.022-.023-.034-.062-.034-.119v-6.953c0-.17.023-.283.068-.34a.615.615 0 0 1 .204-.153c.34-.159.737-.283 1.19-.374a6.32 6.32 0 0 1 1.224-.136Zm3.726 7.973a62.391 62.391 0 0 1-.102-1.411c-.023-.544-.046-1.122-.068-1.734l-.034-1.87a91.763 91.763 0 0 1-.017-1.768c0-.102-.046-.153-.136-.153h-1.003c-.046 0-.08-.011-.102-.034a.227.227 0 0 1-.017-.102v-.68c0-.045.005-.08.017-.102.022-.023.062-.034.119-.034h.986c.056 0 .09-.006.102-.017.022-.023.034-.068.034-.136a12.8 12.8 0 0 1 .051-1.53 2.85 2.85 0 0 1 .476-1.275c.26-.374.623-.652 1.088-.833.464-.193 1.031-.289 1.7-.289.328 0 .629.051.901.153a3.6 3.6 0 0 1 .578.221c.079.045.124.085.136.119.022.023.028.057.017.102l-.17.544c-.012.057-.029.09-.051.102-.023.011-.057.006-.102-.017a2.122 2.122 0 0 0-.544-.204 2.72 2.72 0 0 0-.782-.068c-.51 0-.93.09-1.258.272-.318.17-.527.482-.629.935a3.737 3.737 0 0 0-.17.867 11.58 11.58 0 0 0-.034.901c0 .057.011.096.034.119.022.023.056.034.102.034h2.55c.045 0 .073.011.085.034.022.011.034.051.034.119v.663a.188.188 0 0 1-.034.102c-.023.023-.057.034-.102.034h-2.516a.208.208 0 0 0-.119.034c-.023.023-.034.062-.034.119a104.44 104.44 0 0 0 .068 3.706c.022.646.045 1.241.068 1.785.022.533.045.969.068 1.309a.24.24 0 0 1-.017.102c-.012.023-.04.034-.085.034h-.969c-.023 0-.046-.011-.068-.034a.228.228 0 0 1-.051-.119Zm7.876.238c-.918 0-1.632-.176-2.142-.527-.51-.351-.867-.839-1.071-1.462-.193-.623-.289-1.337-.289-2.142 0-.793.108-1.496.323-2.108.227-.623.595-1.11 1.105-1.462.51-.351 1.201-.527 2.074-.527.884 0 1.581.176 2.091.527.51.351.873.839 1.088 1.462.227.612.34 1.315.34 2.108 0 .793-.102 1.502-.306 2.125a2.761 2.761 0 0 1-1.054 1.479c-.499.351-1.218.527-2.159.527Zm0-.969c.85 0 1.439-.272 1.768-.816.34-.555.51-1.332.51-2.329 0-.997-.181-1.762-.544-2.295-.363-.533-.941-.799-1.734-.799-.782 0-1.36.266-1.734.799-.363.533-.544 1.298-.544 2.295 0 1.009.17 1.785.51 2.329.34.544.929.816 1.768.816Zm7.789-7.242c.691 0 1.275.09 1.751.272a.7.7 0 0 1 .119.085c.034.023.045.062.034.119l-.17.646c-.012.057-.034.09-.068.102-.023.011-.063.006-.119-.017a2.99 2.99 0 0 0-.663-.136 4.708 4.708 0 0 0-.663-.051c-.182 0-.369.017-.561.051a5.188 5.188 0 0 0-.527.119 2.08 2.08 0 0 0-.34.102 4.24 4.24 0 0 1-.17.119c-.068.045-.102.147-.102.306v6.205c0 .08-.012.13-.034.153-.023.023-.063.034-.119.034h-.918a.183.183 0 0 1-.102-.034c-.023-.023-.034-.062-.034-.119v-6.953c0-.17.022-.283.068-.34a.595.595 0 0 1 .204-.153 5.24 5.24 0 0 1 1.19-.374 6.35 6.35 0 0 1 1.224-.136Zm3.249 8.109c-.09 0-.136-.045-.136-.136v-7.021c0-.147.023-.255.068-.323a.633.633 0 0 1 .255-.17c.148-.057.346-.119.595-.187a8.27 8.27 0 0 1 .833-.17c.306-.057.59-.085.85-.085.646 0 1.168.102 1.564.306.408.193.737.459.986.799a2.13 2.13 0 0 1 .595-.595c.25-.159.51-.283.782-.374a2.73 2.73 0 0 1 .833-.136c.839 0 1.485.17 1.938.51.465.34.788.799.969 1.377.182.567.272 1.207.272 1.921a38.68 38.68 0 0 1-.119 3.077c-.022.42-.051.776-.085 1.071 0 .057-.011.096-.034.119a.232.232 0 0 1-.102.017h-.918c-.056 0-.096-.011-.119-.034a.527.527 0 0 1-.017-.153c.023-.204.04-.527.051-.969.023-.453.04-.963.051-1.53.023-.567.034-1.122.034-1.666 0-.317-.034-.635-.102-.952a2.691 2.691 0 0 0-.306-.884 1.714 1.714 0 0 0-.595-.646c-.249-.17-.561-.255-.935-.255-.442 0-.804.119-1.088.357-.272.227-.408.55-.408.969v1.615c.012.487.017.946.017 1.377 0 .42-.005.839-.017 1.258v1.343c0 .113-.056.17-.17.17h-.901c-.09 0-.136-.045-.136-.136v-4.165c0-.555-.062-1.043-.187-1.462-.124-.42-.334-.742-.629-.969-.283-.238-.685-.357-1.207-.357-.215 0-.419.023-.612.068-.192.034-.368.08-.527.136a.385.385 0 0 0-.272.391v6.341c0 .102-.045.153-.136.153h-.935Zm15.32.136a6.087 6.087 0 0 1-1.547-.187 2.188 2.188 0 0 1-1.122-.731c-.284-.363-.425-.884-.425-1.564 0-.578.096-1.048.289-1.411.192-.374.447-.657.765-.85a3.092 3.092 0 0 1 1.02-.425 4.85 4.85 0 0 1 1.037-.119c.34 0 .674.017 1.003.051a7.3 7.3 0 0 1 .799.119c.158.034.238-.08.238-.34 0-.68-.17-1.156-.51-1.428-.329-.283-.85-.425-1.564-.425a4.01 4.01 0 0 0-1.241.187 4.164 4.164 0 0 0-.952.425c-.068.045-.119.062-.153.051-.034-.011-.051-.045-.051-.102l-.102-.646c-.012-.068-.012-.113 0-.136a.409.409 0 0 1 .102-.102 3.01 3.01 0 0 1 1.02-.442 5.35 5.35 0 0 1 1.394-.17c.725 0 1.303.085 1.734.255.43.17.753.397.969.68.215.283.357.612.425.986.079.363.119.748.119 1.156.011.555.011 1.071 0 1.547a29.823 29.823 0 0 1-.136 2.822.45.45 0 0 1-.102.221c-.046.057-.148.119-.306.187-.17.057-.369.113-.595.17a11.75 11.75 0 0 1-.714.119c-.25.034-.493.057-.731.068a7.012 7.012 0 0 1-.663.034Zm.085-.833c.102 0 .243-.006.425-.017a3.76 3.76 0 0 0 .595-.085c.204-.045.379-.102.527-.17.147-.08.232-.176.255-.289.045-.34.079-.737.102-1.19.022-.453.028-.878.017-1.275 0-.227-.08-.363-.238-.408a4.153 4.153 0 0 0-.714-.119 7.872 7.872 0 0 0-1.071-.068c-.17 0-.369.028-.595.085-.216.057-.42.153-.612.289a1.63 1.63 0 0 0-.493.595c-.125.26-.187.595-.187 1.003 0 .385.085.703.255.952.17.238.402.414.697.527.306.113.651.17 1.037.17Zm5.43.697c-.09 0-.136-.045-.136-.136v-7.225c0-.068.023-.125.068-.17.046-.057.148-.113.306-.17.148-.045.363-.096.646-.153.295-.068.607-.13.935-.187a5.69 5.69 0 0 1 .935-.085c.873 0 1.542.17 2.006.51.476.34.805.805.986 1.394.182.578.272 1.218.272 1.921a41.901 41.901 0 0 1-.119 3.026 28.85 28.85 0 0 1-.068 1.054c-.011.102-.034.164-.068.187-.022.023-.085.034-.187.034h-.731c-.09 0-.153-.011-.187-.034-.034-.034-.045-.09-.034-.17 0-.068.006-.25.017-.544a44.52 44.52 0 0 0 .119-2.346c.023-.453.034-.867.034-1.241 0-.612-.073-1.122-.221-1.53-.147-.408-.374-.714-.68-.918-.294-.204-.68-.306-1.156-.306-.249 0-.493.023-.731.068a4.464 4.464 0 0 0-.646.17.386.386 0 0 0-.204.119c-.056.057-.085.159-.085.306v6.29c0 .09-.039.136-.119.136h-.952Zm11.022.102c-.68 0-1.247-.102-1.7-.306a2.56 2.56 0 0 1-1.037-.884 3.658 3.658 0 0 1-.527-1.292 9.003 9.003 0 0 1-.136-1.615c0-.533.051-1.043.153-1.53.102-.499.278-.94.527-1.326a2.592 2.592 0 0 1 1.037-.935c.442-.227.997-.34 1.666-.34.476 0 .884.051 1.224.153.351.09.646.238.884.442a.403.403 0 0 1 .102.136c.023.023.034.068.034.136v.748c0 .068-.023.108-.068.119-.045 0-.091-.023-.136-.068a1.985 1.985 0 0 0-.867-.493 3.764 3.764 0 0 0-1.054-.153c-.431 0-.799.09-1.105.272a1.96 1.96 0 0 0-.697.731c-.17.306-.295.646-.374 1.02a5.177 5.177 0 0 0-.119 1.105c0 .623.074 1.173.221 1.649.147.465.385.827.714 1.088.34.25.782.374 1.326.374.351 0 .669-.034.952-.102.283-.08.555-.181.816-.306.113-.057.193-.034.238.068l.255.544c.034.057.04.102.017.136a.291.291 0 0 1-.085.085 2.994 2.994 0 0 1-1.003.408c-.397.09-.816.136-1.258.136Zm3.358-4.131c0-.533.051-1.043.153-1.53.113-.487.295-.924.544-1.309a2.496 2.496 0 0 1 1.02-.918c.442-.227 1.003-.34 1.683-.34.691 0 1.247.102 1.666.306.419.204.731.476.935.816a3 3 0 0 1 .425 1.122c.079.408.119.816.119 1.224 0 .42-.045.68-.136.782-.079.102-.204.153-.374.153h-4.641a.274.274 0 0 0-.119.034c-.034.023-.051.085-.051.187 0 .521.085.986.255 1.394.17.397.431.708.782.935.363.227.816.34 1.36.34.374 0 .765-.045 1.173-.136a5.036 5.036 0 0 0 1.02-.357.725.725 0 0 1 .221-.102c.057-.011.108.034.153.136l.221.425c.034.068.04.119.017.153a.383.383 0 0 1-.119.102c-.363.238-.805.42-1.326.544-.51.113-1.031.17-1.564.17-.703 0-1.275-.102-1.717-.306a2.56 2.56 0 0 1-1.037-.884 3.833 3.833 0 0 1-.527-1.326 9.003 9.003 0 0 1-.136-1.615Zm5.304-.833c0-.408-.051-.782-.153-1.122a1.6 1.6 0 0 0-.578-.85c-.272-.215-.674-.323-1.207-.323-.385 0-.714.074-.986.221a1.78 1.78 0 0 0-.646.578 2.481 2.481 0 0 0-.357.765c-.079.272-.13.533-.153.782 0 .113.006.193.017.238.023.034.079.051.17.051h3.604c.113 0 .193-.017.238-.051.045-.034.062-.13.051-.289Z" data-color="1"></path>
    </g>
</svg>